<svg width="172" height="146" viewBox="0 0 172 146" fill="none" xmlns="http://www.w3.org/2000/svg">
<path d="M6.81936 0.75647H40.8057C41.9101 0.75657 43.0012 0.997716 44.0024 1.46302L62.1268 9.88412C63.1283 10.3495 64.2197 10.5907 65.3244 10.5907H165.181C166.788 10.5907 168.33 11.2283 169.467 12.3632C170.604 13.4981 171.242 15.0374 171.242 16.6425V139.192C171.242 140.797 170.604 142.336 169.467 143.471C168.33 144.606 166.788 145.244 165.181 145.244H6.81936C5.21171 145.244 3.6699 144.606 2.53311 143.471C1.39633 142.336 0.75769 140.797 0.75769 139.192V6.80828C0.75769 5.20324 1.39633 3.66394 2.53311 2.529C3.6699 1.39407 5.21171 0.75647 6.81936 0.75647Z" fill="#303247" stroke="#20222B" stroke-width="2"/>
</svg>
