<svg width="114" height="31" viewBox="0 0 114 31" fill="none" xmlns="http://www.w3.org/2000/svg">
<path d="M15.2192 30.4384C23.6353 30.4384 28.201 25.4889 29.1701 19.3622H23.3816C22.406 23.0434 19.4077 25.4499 15.0501 25.4499C9.25508 25.4499 5.58037 20.3378 5.58037 14.7964C5.58037 8.96241 9.68435 5.03404 14.9655 5.03404C19.9996 5.03404 22.6207 7.86325 23.4597 11.3689H29.1701C28.3246 4.10398 22.6207 0 14.5883 0C5.58037 0 0 6.80311 0 15.2192C0 23.5897 5.11859 30.4384 15.2192 30.4384ZM33.2286 30.0156H55.1273V24.4352H38.978V17.5021H53.7745V12.2599H38.978V5.9641H55.1273V0.422756H33.2286V30.0156ZM57.3256 15.2192C57.3256 24.9426 64.1287 30.4384 72.6749 30.4384C81.4226 30.4384 88.1867 24.9426 88.1867 15.2192C88.1867 5.03404 81.4226 0 72.6749 0C64.1287 0 57.3256 5.45029 57.3256 15.2192ZM63.0751 15.2192C63.0751 8.62421 67.2571 5.36574 72.6749 5.36574C78.2552 5.36574 82.4828 8.62421 82.4828 15.2192C82.4828 21.8142 78.2552 25.0271 72.6749 25.0271C67.2571 25.0271 63.0751 21.8142 63.0751 15.2192ZM113.767 10.1461C113.767 3.50562 109.071 0 101.507 0C94.6972 0 90.1314 3.38204 90.1314 7.9478C90.1314 18.7248 108.056 14.8355 108.056 21.8142C108.056 24.2206 105.565 25.7881 102.014 25.7881C97.9101 25.7881 95.5036 23.6743 95.5036 20.2467H89.7086C89.7086 27.2645 94.6581 30.4384 102.138 30.4384C108.986 30.4384 113.767 27.0108 113.767 21.8142C113.767 11.0762 95.6727 14.3281 95.6727 8.03235C95.6727 5.49582 98.7556 4.60478 101.546 4.60478C105.396 4.60478 108.056 6.76408 108.056 10.1461H113.767Z" fill="url(#paint0_linear_7_150)"/>
<defs>
<linearGradient id="paint0_linear_7_150" x1="0" y1="30.4384" x2="0" y2="0" gradientUnits="userSpaceOnUse">
<stop stop-color="#6661FF"/>
<stop offset="1" stop-color="#E04C63"/>
</linearGradient>
</defs>
</svg>
